<?xml version="1.0" encoding="utf-8"?>
<!-- Generator: Adobe Illustrator 16.0.0, SVG Export Plug-In . SVG Version: 6.00 Build 0)  -->
<!DOCTYPE svg PUBLIC "-//W3C//DTD SVG 1.1//EN" "http://www.w3.org/Graphics/SVG/1.1/DTD/svg11.dtd">
<svg version="1.1" id="Layer_1" xmlns="http://www.w3.org/2000/svg" xmlns:xlink="http://www.w3.org/1999/xlink" x="0px" y="0px"
	 width="190.466px" height="30px" viewBox="0 0 190.466 41" enable-background="new 0 0 190.466 41" xml:space="preserve">
<g>
	<polygon fill="#FFFFFF" points="93.244,2.497 93.244,38.502 82.793,38.502 82.793,24.781 70.204,24.781 70.204,38.502 
		59.753,38.502 59.753,2.497 70.204,2.497 70.204,16.474 82.793,16.474 82.793,2.497 	"/>
	<polygon fill="#FFFFFF" points="124.715,30.194 124.715,38.502 99.029,38.502 99.029,2.497 124.653,2.497 124.653,10.804 
		109.481,10.804 109.481,16.534 122.891,16.534 122.891,24.844 109.481,24.844 109.481,30.194 	"/>
	<polygon fill="#FFFFFF" points="156.617,30.194 156.617,38.502 130.43,38.502 130.43,2.497 140.881,2.497 140.881,30.194 	"/>
	<path fill="#FFFFFF" d="M180.395,27.047c0-1.573-1.071-3.147-3.398-3.147h-5.982v6.484h5.982
		C179.262,30.384,180.395,28.682,180.395,27.047 M175.355,10.614h-4.342v5.541h4.342c1.764,0,2.707-1.445,2.707-2.768
		C178.062,12.003,177.119,10.614,175.355,10.614 M190.466,28.18c0,5.915-4.278,10.322-12.466,10.322h-17.186V2.497h15.049
		c7.93,0,12.398,4.345,12.398,9.948c0,2.828-1.071,4.843-3.275,6.605C188.826,21.193,190.466,24.023,190.466,28.18"/>
	<rect x="13.297" fill="#FFDF00" width="4.432" height="15.281"/>
	<polygon fill="#FFDF00" points="13.297,5.967 0,5.967 0,34.901 40.811,34.9 40.811,5.968 26.933,5.967 26.933,9.504 37.272,9.504 
		37.272,31.363 3.539,31.363 3.539,9.506 13.297,9.506 23.187,6.858 23.187,3.328 	"/>
	<polygon fill="#FFDF00" points="27.34,0 23.077,0 23.077,15.281 27.51,15.281 27.51,0 	"/>
	<path fill="#FFDF00" d="M20.958,37.553h-2.542v-2.757h2.542c0.99,0,1.445,0.668,1.445,1.339
		C22.403,36.83,21.922,37.553,20.958,37.553 M18.417,29.153h1.847c0.749,0,1.15,0.591,1.15,1.179c0,0.562-0.401,1.179-1.15,1.179
		h-1.847V29.153z M24.354,32.738c0.934-0.748,1.389-1.603,1.389-2.809c0-2.379-1.896-4.222-5.265-4.222h-6.39V41h7.299
		c3.474,0,5.291-1.871,5.291-4.384C26.678,34.849,25.983,33.647,24.354,32.738"/>
</g>
</svg>